<?xml version="1.0" encoding="UTF-8"?>
<svg width="237px" height="55px" viewBox="0 0 237 55" version="1.1" xmlns="http://www.w3.org/2000/svg" xmlns:xlink="http://www.w3.org/1999/xlink">
    <!-- Generator: Sketch 46.2 (44496) - http://www.bohemiancoding.com/sketch -->
    <title>Group 9</title>
    <desc>Created with Sketch.</desc>
    <defs>
        <path d="M13.1800001,54.8497297 C20.5240001,54.8497297 24.0520001,50.5704039 24.4120001,43.5961336 C29.3800001,43.1602418 38.0200001,40.7558919 38.0200001,22.8116757 C38.0200001,3.85037838 29.0920001,0.363243243 19.0120001,0.363243243 L5.2600001,0.363243243 C2.0200001,0.363243243 0.00400009775,2.39740541 0.00400009775,5.88454054 L0.00400009775,49.9822703 C0.00400009775,53.4694054 2.0200001,54.8497297 5.4760001,54.8497297 L13.1800001,54.8497297 Z" id="path-1"></path>
        <ellipse id="path-3" cx="3.45000458" cy="43.8918919" rx="21" ry="21.1891892"></ellipse>
        <filter x="-25.0%" y="-17.7%" width="150.0%" height="149.6%" filterUnits="objectBoundingBox" id="filter-4">
            <feOffset dx="0" dy="3" in="SourceAlpha" result="shadowOffsetOuter1"></feOffset>
            <feGaussianBlur stdDeviation="3" in="shadowOffsetOuter1" result="shadowBlurOuter1"></feGaussianBlur>
            <feColorMatrix values="0 0 0 0 0.751833546   0 0 0 0 0.751833546   0 0 0 0 0.751833546  0 0 0 0.292430933 0" type="matrix" in="shadowBlurOuter1"></feColorMatrix>
        </filter>
    </defs>
    <g id="Page-1" stroke="none" stroke-width="1" fill="none" fill-rule="evenodd">
        <g id="Final" transform="translate(-129.000000, -262.000000)">
            <g id="Group-9" transform="translate(129.000000, 262.000000)">
                <g id="Group-8-Copy-4">
                    <g id="Group-4">
                        <g id="Group-3">
                            <mask id="mask-2" fill="white">
                                <use xlink:href="#path-1"></use>
                            </mask>
                            <use id="p-copy" fill="#008DEA" xlink:href="#path-1"></use>
                            <g id="Oval-3-Copy-2" mask="url(#mask-2)">
                                <use fill="black" fill-opacity="1" filter="url(#filter-4)" xlink:href="#path-3"></use>
                                <use fill="#5EBCF9" fill-rule="evenodd" xlink:href="#path-3"></use>
                            </g>
                        </g>
                        <path d="M67.296,6.10854054 C69.2760099,6.10854054 71.1029916,6.48086114 72.777,7.22551351 C74.4510084,7.97016589 75.8999939,8.99631779 77.124,10.304 C78.3480061,11.6116822 79.3019966,13.1372886 79.986,14.8808649 C80.6700034,16.6244412 81.012,18.4951251 81.012,20.492973 C81.012,22.4544963 80.6700034,24.3070183 79.986,26.0505946 C79.3019966,27.7941709 78.3480061,29.3197772 77.124,30.6274595 C75.8999939,31.9351417 74.4510084,32.9612936 72.777,33.7059459 C71.1029916,34.4505983 69.2760099,34.8229189 67.296,34.8229189 C65.099989,34.8229189 63.1740083,34.4051934 61.518,33.5697297 L61.518,27.7396757 C62.3820043,28.1029207 63.4727043,28.8107059 66.5439816,28.6400086 C69.615259,28.4693114 71.5079962,26.7589227 72.264,25.9961081 C73.7760076,24.4704789 74.532,22.6361188 74.532,20.492973 C74.532,18.3135026 73.7760076,16.4609806 72.264,14.9353514 C70.6799921,13.4097221 68.8440104,12.6469189 66.756,12.6469189 C64.5959892,12.6469189 62.7600076,13.4097221 61.248,14.9353514 C59.7359924,16.4609806 58.98,18.3135026 58.98,20.492973 L58.98,45.0118919 L53.5,45.0118919 L53.5,45.0118919 C52.9477153,45.0118919 52.5,44.5641766 52.5,44.0118919 L52.5,7.81686486 L52.5,7.81686486 C52.5,7.26458012 52.9477153,6.81686486 53.5,6.81686486 L58.98,6.81686486 L58.98,8.99632432 C60.0240052,8.16086069 61.2299932,7.47070543 62.598,6.92583784 C63.9660068,6.38097025 65.5319912,6.10854054 67.296,6.10854054 Z M111.204,7.81686486 L111.204,34.1145946 L104.724,34.1145946 L104.724,20.492973 C104.724,18.3135026 103.968008,16.4609806 102.456,14.9353514 C100.943992,13.4097221 99.1080109,12.6469189 96.9480001,12.6469189 C95.9039948,12.6469189 94.9050048,12.8467007 93.9510001,13.2462703 C92.9969953,13.6458398 92.1600037,14.2088612 91.4400001,14.9353514 C89.9279925,16.4609806 89.1720001,18.3135026 89.1720001,20.492973 C89.1720001,22.6361188 89.9279925,24.4704789 91.4400001,25.9961081 C91.7919907,26.3690279 93.4847894,27.8494283 95.9161149,28.1910235 C98.4581127,28.5481679 101.744384,27.6817273 102.186,27.4960631 L102.186,33.5697297 C100.529992,34.4051934 98.604011,34.8229189 96.4080001,34.8229189 C94.4279902,34.8229189 92.6010084,34.4505983 90.9270001,33.7059459 C89.2529917,32.9612936 87.8040062,31.9351417 86.5800001,30.6274595 C85.3559939,29.3197772 84.4020035,27.7941709 83.7180001,26.0505946 C83.0339966,24.3070183 82.6920001,22.4544963 82.6920001,20.492973 C82.6920001,18.4951251 83.0339966,16.6244412 83.7180001,14.8808649 C84.4020035,13.1372886 85.3559939,11.6116822 86.5800001,10.304 C87.8040062,8.99631779 89.2529917,7.97016589 90.9270001,7.22551351 C92.6010084,6.48086114 94.4279902,6.10854054 96.4080001,6.10854054 C98.1720089,6.10854054 99.7379932,6.38097025 101.106,6.92583784 C102.474007,7.47070543 103.679995,8.16086069 104.724,8.99632432 L104.724,6.81686486 L110.204,6.81686486 L110.204,6.81686486 C110.756285,6.81686486 111.204,7.26458012 111.204,7.81686486 Z M122.604,8.94183784 C123.612005,8.1063742 124.754994,7.41621894 126.033,6.87135135 C127.311007,6.32648376 128.759992,6.05405405 130.38,6.05405405 L130.38,12.5924324 C128.219989,12.5924324 126.384008,13.3552356 124.872,14.8808649 C123.359993,16.4791431 122.604,18.3316651 122.604,20.4384865 L122.604,34.1145946 L117.124,34.1145946 L117.124,34.1145946 C116.571715,34.1145946 116.124,33.6668793 116.124,33.1145946 L116.124,7.81686486 L116.124,7.81686486 C116.124,7.26458012 116.571715,6.81686486 117.124,6.81686486 L122.604,6.81686486 L122.604,8.94183784 Z M194.436,6.10854054 C195.948008,6.10854054 197.270995,6.39913223 198.405,6.98032432 C199.539006,7.56151642 200.465997,8.36064356 201.186,9.37772973 C201.906004,10.3948159 202.445998,11.5753446 202.806,12.9193514 C203.166002,14.2633581 203.346,15.7163165 203.346,17.2782703 L203.346,34.1145946 L196.866,34.1145946 L196.866,17.2782703 C196.866,16.0069126 196.416005,14.9171937 195.516,14.0090811 C194.651996,13.1009684 193.572007,12.6469189 192.276,12.6469189 C190.979994,12.6469189 189.900005,13.1009684 189.036,14.0090811 C188.135996,14.9171937 187.686,16.0069126 187.686,17.2782703 L187.686,34.1145946 L181.206,34.1145946 L181.206,17.2782703 C181.206,16.0069126 180.756005,14.9171937 179.856,14.0090811 C179.423998,13.5368625 178.929003,13.1917849 178.371,12.9738378 C177.812997,12.7558908 177.228003,12.6469189 176.616,12.6469189 C175.283994,12.6469189 174.186005,13.1009684 173.322,14.0090811 C172.421996,14.9171937 171.972,16.0069126 171.972,17.2782703 L171.972,34.1145946 L166.492,34.1145946 L166.492,34.1145946 C165.939715,34.1145946 165.492,33.6668793 165.492,33.1145946 L165.492,7.87135135 L165.492,7.87135135 C165.492,7.3190666 165.939715,6.87135135 166.492,6.87135135 L171.972,6.87135135 L171.972,9.26875676 C173.016005,8.36064411 174.113994,7.60692192 175.266,7.00756757 C176.418006,6.40821322 177.587994,6.10854054 178.776,6.10854054 C180.396008,6.10854054 181.727995,6.43545619 182.772,7.0892973 C183.816005,7.7431384 184.751996,8.65123743 185.58,9.81362162 C186.552005,8.76021095 187.811992,7.87935489 189.36,7.17102703 C190.908008,6.46269916 192.599991,6.10854054 194.436,6.10854054 Z M160.704,7.81686486 L160.704,34.1145946 L154.224,34.1145946 L154.224,20.492973 C154.224,18.3135026 153.468008,16.4609806 151.956,14.9353514 C150.443992,13.4097221 148.608011,12.6469189 146.448,12.6469189 C145.403995,12.6469189 144.405005,12.8467007 143.451,13.2462703 C142.496995,13.6458398 141.660004,14.2088612 140.94,14.9353514 C139.427992,16.4609806 138.672,18.3135026 138.672,20.492973 C138.672,22.6361188 139.427992,24.4704789 140.94,25.9961081 C141.291991,26.3690279 142.984789,27.8494283 145.416115,28.1910235 C147.958113,28.5481679 151.244384,27.6817273 151.686,27.4960631 L151.686,33.5697297 C150.029992,34.4051934 148.104011,34.8229189 145.908,34.8229189 C143.92799,34.8229189 142.101008,34.4505983 140.427,33.7059459 C138.752992,32.9612936 137.304006,31.9351417 136.08,30.6274595 C134.855994,29.3197772 133.902003,27.7941709 133.218,26.0505946 C132.533997,24.3070183 132.192,22.4544963 132.192,20.492973 C132.192,18.4951251 132.533997,16.6244412 133.218,14.8808649 C133.902003,13.1372886 134.855994,11.6116822 136.08,10.304 C137.304006,8.99631779 138.752992,7.97016589 140.427,7.22551351 C142.101008,6.48086114 143.92799,6.10854054 145.908,6.10854054 C147.672009,6.10854054 149.237993,6.38097025 150.606,6.92583784 C151.974007,7.47070543 153.179995,8.16086069 154.224,8.99632432 L154.224,6.81686486 L159.704,6.81686486 C160.256285,6.81686486 160.704,7.26458012 160.704,7.81686486 L160.704,7.81686486 Z" id="Combined-Shape" fill="#374554"></path>
                    </g>
                </g>
                <path d="M228.84,18.85 L228.84,33.38 L225.24,33.38 L225.24,25.88 C225.24,24.679994 224.820004,23.6600042 223.98,22.82 C223.139996,21.9799958 222.120006,21.56 220.92,21.56 C220.339997,21.56 219.785003,21.6699989 219.255,21.89 C218.724997,22.1100011 218.260002,22.419998 217.86,22.82 C217.019996,23.6600042 216.6,24.679994 216.6,25.88 C216.6,27.0600059 217.019996,28.0699958 217.86,28.91 C218.260002,29.3300021 218.724997,29.6449989 219.255,29.855 C219.785003,30.065001 220.085561,30.17 220.92,30.17 C221.754439,30.17 223.349998,29.870024 223.83,29.670023 L223.83,33.08 C222.909995,33.5400023 221.840006,33.77 220.62,33.77 C219.519994,33.77 218.505005,33.565002 217.575,33.155 C216.644995,32.7449979 215.840003,32.1800036 215.16,31.46 C214.479997,30.7399964 213.950002,29.9000048 213.57,28.94 C213.189998,27.9799952 213,26.9600054 213,25.88 C213,24.7799945 213.189998,23.7500048 213.57,22.79 C213.950002,21.8299952 214.479997,20.9900036 215.16,20.27 C215.840003,19.5499964 216.644995,18.985002 217.575,18.575 C218.505005,18.1649979 219.519994,17.96 220.62,17.96 C221.600005,17.96 222.469996,18.1099985 223.23,18.41 C223.990004,18.7100015 224.659997,19.0899977 225.24,19.55 L225.24,18.35 L228.34,18.35 L228.34,18.35 C228.616142,18.35 228.84,18.5738576 228.84,18.85 Z M232.64,33.38 L232.64,18.88 L232.64,18.88 C232.64,18.6038576 232.863858,18.38 233.14,18.38 L236.24,18.38 L236.24,33.38 L232.64,33.38 Z M234.44,12 L234.44,12 L234.44,12 C235.643981,12 236.62,12.9760192 236.62,14.18 L236.62,14.18 L236.62,14.18 C236.62,15.3839808 235.643981,16.36 234.44,16.36 L234.44,16.36 L234.44,16.36 C233.236019,16.36 232.26,15.3839808 232.26,14.18 L232.26,14.18 L232.26,14.18 C232.26,12.9760192 233.236019,12 234.44,12 Z" id="ai-copy" fill="#008CEC"></path>
                <circle id="Oval" fill="#008BEE" cx="209" cy="32" r="2"></circle>
            </g>
        </g>
    </g>
</svg>